<svg width="20" height="21" viewBox="0 0 20 21" fill="none" xmlns="http://www.w3.org/2000/svg">
<path d="M10 5H8C7.71667 5 7.47933 4.904 7.288 4.712C7.09667 4.52 7.00067 4.28267 7 4C7 3.71667 7.096 3.47933 7.288 3.288C7.48 3.09667 7.71733 3.00067 8 3H10V1C10 0.716667 10.096 0.479333 10.288 0.288C10.48 0.0966666 10.7173 0.000666667 11 0C11.2833 0 11.521 0.096 11.713 0.288C11.905 0.48 12.0007 0.717333 12 1V3H14C14.2833 3 14.521 3.096 14.713 3.288C14.905 3.48 15.0007 3.71733 15 4C15 4.28333 14.904 4.521 14.712 4.713C14.52 4.905 14.2827 5.00067 14 5H12V7C12 7.28333 11.904 7.521 11.712 7.713C11.52 7.905 11.2827 8.00067 11 8C10.7167 8 10.4793 7.904 10.288 7.712C10.0967 7.52 10.0007 7.28267 10 7V5ZM6 21C5.45 21 4.97933 20.8043 4.588 20.413C4.19667 20.0217 4.00067 19.5507 4 19C4 18.45 4.196 17.9793 4.588 17.588C4.98 17.1967 5.45067 17.0007 6 17C6.55 17 7.021 17.196 7.413 17.588C7.805 17.98 8.00067 18.4507 8 19C8 19.55 7.80433 20.021 7.413 20.413C7.02167 20.805 6.55067 21.0007 6 21ZM16 21C15.45 21 14.9793 20.8043 14.588 20.413C14.1967 20.0217 14.0007 19.5507 14 19C14 18.45 14.196 17.9793 14.588 17.588C14.98 17.1967 15.4507 17.0007 16 17C16.55 17 17.021 17.196 17.413 17.588C17.805 17.98 18.0007 18.4507 18 19C18 19.55 17.8043 20.021 17.413 20.413C17.0217 20.805 16.5507 21.0007 16 21ZM2 3H1C0.716667 3 0.479333 2.904 0.288 2.712C0.0966666 2.52 0.000666667 2.28267 0 2C0 1.71667 0.096 1.47933 0.288 1.288C0.48 1.09667 0.717333 1.00067 1 1H2.65C2.83333 1 3.00833 1.05 3.175 1.15C3.34167 1.25 3.46667 1.39167 3.55 1.575L7.525 10H14.525L18.15 3.5C18.2333 3.33333 18.35 3.20833 18.5 3.125C18.65 3.04167 18.8167 3 19 3C19.3833 3 19.671 3.16267 19.863 3.488C20.055 3.81333 20.059 4.14233 19.875 4.475L16.3 10.95C16.1167 11.2833 15.871 11.5417 15.563 11.725C15.255 11.9083 14.9173 12 14.55 12H7.1L6 14H17C17.2833 14 17.521 14.096 17.713 14.288C17.905 14.48 18.0007 14.7173 18 15C18 15.2833 17.904 15.521 17.712 15.713C17.52 15.905 17.2827 16.0007 17 16H6C5.25 16 4.679 15.675 4.287 15.025C3.895 14.375 3.88267 13.7167 4.25 13.05L5.6 10.6L2 3Z" fill="#E3AC14"/>
</svg>
