<svg width="20" height="21" viewBox="0 0 20 21" fill="none" xmlns="http://www.w3.org/2000/svg">
<path d="M10 13.8335C11.0417 13.8335 11.9272 13.4691 12.6567 12.7402C13.3861 12.0113 13.7506 11.1257 13.75 10.0835C13.75 9.04183 13.3856 8.15655 12.6567 7.42766C11.9278 6.69877 11.0422 6.33405 10 6.3335C8.95833 6.3335 8.07306 6.69822 7.34417 7.42766C6.61528 8.15711 6.25056 9.04238 6.25 10.0835C6.25 11.1252 6.61472 12.0107 7.34417 12.7402C8.07361 13.4696 8.95889 13.8341 10 13.8335ZM10 12.3335C9.375 12.3335 8.84389 12.1146 8.40667 11.6768C7.96944 11.2391 7.75056 10.7079 7.75 10.0835C7.75 9.4585 7.96889 8.92739 8.40667 8.49016C8.84444 8.05294 9.37556 7.83405 10 7.8335C10.625 7.8335 11.1564 8.05239 11.5942 8.49016C12.0319 8.92794 12.2506 9.45905 12.25 10.0835C12.25 10.7085 12.0314 11.2399 11.5942 11.6777C11.1569 12.1154 10.6256 12.3341 10 12.3335ZM10 16.3335C8.13889 16.3335 6.44083 15.8335 4.90583 14.8335C3.37083 13.8335 2.15917 12.5141 1.27083 10.8752C1.20139 10.7502 1.14944 10.6218 1.115 10.4902C1.08056 10.3585 1.06306 10.2229 1.0625 10.0835C1.0625 9.94461 1.08 9.80905 1.115 9.67683C1.15 9.54461 1.20194 9.41627 1.27083 9.29183C2.15972 7.65294 3.37167 6.3335 4.90667 5.3335C6.44167 4.3335 8.13944 3.8335 10 3.8335C11.8611 3.8335 13.5592 4.3335 15.0942 5.3335C16.6292 6.3335 17.8408 7.65294 18.7292 9.29183C18.7986 9.41683 18.8508 9.54544 18.8858 9.67766C18.9208 9.80988 18.9381 9.94516 18.9375 10.0835C18.9375 10.2224 18.9203 10.3579 18.8858 10.4902C18.8514 10.6224 18.7992 10.7507 18.7292 10.8752C17.8403 12.5141 16.6286 13.8335 15.0942 14.8335C13.5597 15.8335 11.8617 16.3335 10 16.3335ZM10 14.6668C11.5694 14.6668 13.0106 14.2538 14.3233 13.4277C15.6361 12.6016 16.6394 11.4868 17.3333 10.0835C16.6389 8.68072 15.6353 7.56627 14.3225 6.74016C13.0097 5.91405 11.5689 5.50072 10 5.50016C8.43056 5.50016 6.98972 5.9135 5.6775 6.74016C4.36528 7.56683 3.36167 8.68127 2.66667 10.0835C3.36111 11.4863 4.36472 12.601 5.6775 13.4277C6.99028 14.2543 8.43111 14.6674 10 14.6668Z" fill="#A5ABB3"/>
</svg>
